<svg id="Layer_1" data-name="Layer 1" xmlns="http://www.w3.org/2000/svg" viewBox="0 0 74.6 90"><title>trash</title><path d="M997.92,507.6v9.6c-1.09,2.64-3.26,3.23-6,2.87v58.16a6.79,6.79,0,0,1-5.05,6.88,2.67,2.67,0,0,0-.51.25H934.8c-4.64-2-5.56-3.4-5.56-8.56V520h-1.5c-2.9,0-4.42-1.54-4.42-4.46V509.1c0-3.29,1.45-4.74,4.75-4.74h20.77c0-1.38,0-2.54,0-3.69a4.93,4.93,0,0,1,5.31-5.31H967c3.28,0,5.27,2,5.29,5.33v3.67h1.59c6.2,0,12.4.08,18.59,0C995.1,504.27,996.94,505.1,997.92,507.6Zm-10,12.63h-54.8v57.46c0,2.75,1,3.79,3.74,3.79h45.84c.76,0,1.52,0,2.28,0a2.81,2.81,0,0,0,2.86-2.66,11.51,11.51,0,0,0,.08-1.31V520.23Zm-60.59-4.1h66.27v-7.6H927.37Zm25.43-11.86h15.63a33.72,33.72,0,0,0,0-3.78,1.7,1.7,0,0,0-1.07-1.1,7.61,7.61,0,0,0-2.14-.07H954.39c-.81,0-1.58.07-1.59,1.15S952.8,502.94,952.8,504.27Z" transform="translate(-923.32 -495.36)"/><path d="M958.56,550.2v-23c0-1.63.74-2.53,2.05-2.5s2,.93,2,2.49v46.17c0,1.32-.57,2.15-1.6,2.35a1.87,1.87,0,0,1-2.19-1.07,3.59,3.59,0,0,1-.24-1.5Q958.55,561.65,958.56,550.2Z" transform="translate(-923.32 -495.36)"/><path d="M977.28,550.24c0,7.72,0,15.43,0,23.15,0,1-.29,2-1.31,2.14a3,3,0,0,1-2.14-.55,2.58,2.58,0,0,1-.58-1.83q0-21.33,0-42.68c0-1.16,0-2.32,0-3.48,0-1.43.8-2.32,2-2.32s2,.88,2,2.31Z" transform="translate(-923.32 -495.36)"/><path d="M943.92,550.21V527.54a9.73,9.73,0,0,1,0-1.08,2,2,0,0,1,4,0,7.79,7.79,0,0,1,0,1.08v45.34c0,.32,0,.64,0,1a2,2,0,0,1-1.94,1.91,2.08,2.08,0,0,1-2.12-1.89c0-.35,0-.72,0-1.08Z" transform="translate(-923.32 -495.36)"/></svg>